HIERARCHY
ROOT Hips
{
  OFFSET 60.6838 92.6539 6.79346
  CHANNELS 6 Xposition Yposition Zposition Zrotation Xrotation Yrotation
  JOINT spine
  {
    OFFSET 0 7.4756 0.429885
    CHANNELS 3 Zrotation Xrotation Yrotation
    JOINT spine1
    {
      OFFSET 0 9.92301 0
      CHANNELS 3 Zrotation Xrotation Yrotation
      JOINT spine2
      {
        OFFSET 0 9.50804 0
        CHANNELS 3 Zrotation Xrotation Yrotation
        JOINT Neck
        {
          OFFSET 0 24.4111 1.16384
          CHANNELS 3 Zrotation Xrotation Yrotation
          JOINT Head
          {
            OFFSET 0 7.37523 0
            CHANNELS 3 Zrotation Xrotation Yrotation
            End Site
            {
              OFFSET 0 17.8522 -5.88741
            }
          }
        }
        JOINT RightShoulder
        {
          OFFSET -4.00356 10.2679 -0.557468
          CHANNELS 3 Zrotation Xrotation Yrotation
          JOINT RightArm
          {
            OFFSET 0 13.4673 0
            CHANNELS 3 Zrotation Xrotation Yrotation
            JOINT RightArmRoll
            {
              OFFSET 0 6.79858 0
              CHANNELS 3 Zrotation Xrotation Yrotation
              JOINT RightForeArm
              {
                OFFSET 0 19.8018 0
                CHANNELS 3 Zrotation Xrotation Yrotation
                JOINT RightForeArmRoll
                {
                  OFFSET 0 7.62905 0
                  CHANNELS 3 Zrotation Xrotation Yrotation
                  JOINT RightHand
                  {
                    OFFSET 0 15.3098 0
                    CHANNELS 3 Zrotation Xrotation Yrotation
                    End Site
                    {
                      OFFSET 0 0 0
                    }
                  }
                }
              }
            }
          }
        }
        JOINT LeftShoulder
        {
          OFFSET 4.00356 10.2679 -0.557468
          CHANNELS 3 Zrotation Xrotation Yrotation
          JOINT LeftArm
          {
            OFFSET 0 13.4673 0
            CHANNELS 3 Zrotation Xrotation Yrotation
            JOINT LeftArmRoll
            {
              OFFSET 0 6.79858 0
              CHANNELS 3 Zrotation Xrotation Yrotation
              JOINT LeftForeArm
              {
                OFFSET 0 19.8018 0
                CHANNELS 3 Zrotation Xrotation Yrotation
                JOINT LeftForeArmRoll
                {
                  OFFSET 0 7.62905 0
                  CHANNELS 3 Zrotation Xrotation Yrotation
                  JOINT LeftHand
                  {
                    OFFSET 0 15.3098 0
                    CHANNELS 3 Zrotation Xrotation Yrotation
                    End Site
                    {
                      OFFSET 0 0 0
                    }
                  }
                }
              }
            }
          }
        }
      }
    }
  }
  JOINT RightUpLeg
  {
    OFFSET -6.62609 -1.21505 -1.01927
    CHANNELS 3 Zrotation Xrotation Yrotation
    JOINT RightUpLegRoll
    {
      OFFSET 0 17.9517 0
      CHANNELS 3 Zrotation Xrotation Yrotation
      JOINT RightLeg
      {
        OFFSET 0 -22.2304 0
        CHANNELS 3 Zrotation Xrotation Yrotation
        JOINT RightLegRoll
        {
          OFFSET 0 22.3032 0
          CHANNELS 3 Zrotation Xrotation Yrotation
          JOINT RightFoot
          {
            OFFSET 0 18.5636 0
            CHANNELS 3 Zrotation Xrotation Yrotation
            JOINT RightToeBase
            {
              OFFSET 0 15.5183 0
              CHANNELS 3 Zrotation Xrotation Yrotation
              End Site
              {
                OFFSET 0.00657761 7.51539 -0.866262
              }
            }
          }
        }
      }
    }
  }
  JOINT LeftUpLeg
  {
    OFFSET 6.62609 -1.21505 -1.01927
    CHANNELS 3 Zrotation Xrotation Yrotation
    JOINT LeftUpLegRoll
    {
      OFFSET 0 17.9518 0
      CHANNELS 3 Zrotation Xrotation Yrotation
      JOINT LeftLeg
      {
        OFFSET 0 22.2303 0
        CHANNELS 3 Zrotation Xrotation Yrotation
        JOINT LeftLegRoll
        {
          OFFSET 0 22.5093 0
          CHANNELS 3 Zrotation Xrotation Yrotation
          JOINT LeftFoot
          {
            OFFSET 0 18.3575 0
            CHANNELS 3 Zrotation Xrotation Yrotation
            JOINT LeftToeBase
            {
              OFFSET 0 15.5183 0
              CHANNELS 3 Zrotation Xrotation Yrotation
              End Site
              {
                OFFSET -0.029478 7.51539 -0.866262
              }
            }
          }
        }
      }
    }
  }
}
MOTION
Frames: 9
Frame Time: 0.00208333
60.1798 92.6946 7.83026 0.810072 -6.11699 -3.72775 -0.0982257 -1.77791 -0.214284 -0.201095 0.447378 -0.43779 -0.195943 2.09244 -0.434586 -18.9842 16.4088 5.01501 14.8281 7.87733 -0.141315 9.06152 -12.0154 -9.05519 19.2939 34.9737 91.0687 2.45551e-007 4.97699e-007 -6.19199e-006 -6.43735 30.2185 1.23349 5.86171e-006 -3.72115e-006 -3.00007 8.03022 -4.95139 0.697626 -33.1088 -18.2676 14.5035 5.91778 28.3356 -74.3195 -1.63169e-005 -1.1836e-006 1.1719e-006 2.60721 23.5615 -0.153432 -1.58498e-005 9.71551e-007 3.00381 -8.02959 -4.9514 -0.69765 171.463 10.6971 5.46307 180 7.01549e-015 178.933 177.238 29.8632 179.674 -2.99257e-007 -3.05125e-006 0.486868 -19.4823 68.8177 20.2462 8.12502 25.2333 -3.48285 175.176 -1.69822 4.52632 4.54188e-006 -4.6773e-006 -1.06106 -4.47336 -9.01174 -0.135916 -8.9416e-007 -3.52444e-006 -0.104649 19.6618 69.4338 -20.803 -8.13649 25.2327 3.48774 
60.1714 92.6937 7.83341 0.799301 -6.1111 -3.74512 -0.099528 -1.78065 -0.214334 -0.203681 0.441916 -0.438628 -0.19852 2.08698 -0.43538 -18.9413 16.3872 4.99583 14.8343 7.89552 -0.146288 9.2834 -11.9885 -9.00085 19.2392 34.9789 91.0119 2.45551e-007 4.97699e-007 -6.19199e-006 -6.58352 29.6861 1.22219 5.86171e-006 -3.72115e-006 -3.00007 8.03022 -4.95139 0.697626 -33.1914 -18.2646 14.4887 5.85436 28.396 -74.2567 -1.63169e-005 -1.1836e-006 1.1719e-006 2.60347 22.997 -0.129053 -1.58498e-005 9.71551e-007 3.00381 -8.02959 -4.9514 -0.69765 171.477 10.7121 5.45583 180 7.01549e-015 178.933 177.238 29.8729 179.674 -2.99257e-007 -3.05125e-006 0.486828 -19.4826 68.8179 20.2464 8.12503 25.2333 -3.48285 175.19 -1.69526 4.51789 4.54188e-006 -4.6773e-006 -1.06129 -4.47479 -9.01059 -0.13618 -8.9416e-007 -3.52444e-006 -0.104615 19.6619 69.4335 -20.8026 -8.13649 25.2327 3.48774 
60.1526 92.6999 7.82832 0.789143 -6.10475 -3.76292 -0.100595 -1.78341 -0.214757 -0.205813 0.436393 -0.439926 -0.200638 2.08145 -0.436643 -18.9012 16.3645 4.97868 14.8365 7.91299 -0.149958 9.49058 -11.965 -8.95288 19.2019 34.9973 90.9488 2.45551e-007 4.97699e-007 -6.19199e-006 -6.72847 29.1492 1.20943 5.86171e-006 -3.72115e-006 -3.00007 8.03022 -4.95139 0.697626 -33.2676 -18.2633 14.4764 5.77567 28.4568 -74.1924 -1.63169e-005 -1.1836e-006 1.1719e-006 2.60415 22.4438 -0.105943 -1.58498e-005 9.71551e-007 3.00381 -8.02959 -4.9514 -0.69765 171.488 10.7281 5.44983 180 7.01549e-015 178.933 177.236 29.8832 179.675 -2.99257e-007 -3.05125e-006 0.486817 -19.4826 68.8178 20.2464 8.12504 25.2333 -3.48286 175.204 -1.69156 4.5105 4.54188e-006 -4.6773e-006 -1.06152 -4.47579 -9.00976 -0.136432 -8.9416e-007 -3.52444e-006 -0.10458 19.663 69.4341 -20.8031 -8.13649 25.2327 3.48774 
60.1482 92.7009 7.83021 0.779663 -6.09788 -3.78111 -0.10138 -1.7862 -0.215619 -0.207404 0.430819 -0.441769 -0.202206 2.07588 -0.43846 -18.8645 16.3406 4.96393 14.834 7.92943 -0.152063 9.68003 -11.9455 -8.91273 19.1861 35.0312 90.8777 2.45551e-007 4.97699e-007 -6.19199e-006 -6.87242 28.6067 1.19529 5.86171e-006 -3.72115e-006 -3.00007 8.03022 -4.95139 0.697626 -33.3371 -18.2637 14.4669 5.67991 28.5175 -74.1261 -1.63169e-005 -1.1836e-006 1.1719e-006 2.6097 21.9037 -0.084136 -1.58498e-005 9.71551e-007 3.00381 -8.02959 -4.9514 -0.69765 171.499 10.7451 5.44525 180 7.01549e-015 178.933 177.234 29.8942 179.675 -2.99257e-007 -3.05125e-006 0.486839 -19.4824 68.8175 20.246 8.12505 25.2333 -3.48286 175.216 -1.68699 4.50429 4.54188e-006 -4.6773e-006 -1.06174 -4.4763 -9.00936 -0.136669 -8.9416e-007 -3.52444e-006 -0.104546 19.6653 69.4358 -20.8046 -8.13649 25.2327 3.48774 
60.1596 92.7016 7.84047 0.770813 -6.0904 -3.79976 -0.101923 -1.78902 -0.216948 -0.208566 0.425187 -0.444167 -0.203341 2.07025 -0.440838 -18.83 16.3149 4.95097 14.8268 7.94607 -0.152976 9.85603 -11.9306 -8.88068 19.1841 35.0806 90.8038 2.45552e-007 4.97699e-007 -6.19199e-006 -7.01557 28.0597 1.1795 5.86171e-006 -3.72115e-006 -3.00006 8.03022 -4.95139 0.697626 -33.3986 -18.2674 14.4618 5.56768 28.581 -74.0578 -1.63169e-005 -1.1836e-006 1.1719e-006 2.61797 21.3744 -0.0636241 -1.58498e-005 9.71551e-007 3.00381 -8.02959 -4.9514 -0.69765 171.507 10.7634 5.44208 180 7.01549e-015 178.933 177.231 29.9062 179.676 -2.99257e-007 -3.05125e-006 0.486895 -19.4819 68.8168 20.2453 8.12506 25.2333 -3.48286 175.226 -1.68145 4.49918 4.54188e-006 -4.6773e-006 -1.06198 -4.47634 -9.0094 -0.136906 -8.9416e-007 -3.52444e-006 -0.104512 19.669 69.4386 -20.8071 -8.13649 25.2327 3.48774 
60.1522 92.7052 7.83946 0.762487 -6.08232 -3.81897 -0.102306 -1.79187 -0.218695 -0.209487 0.419483 -0.447026 -0.204227 2.06454 -0.443682 -18.7965 16.287 4.9389 14.8156 7.96412 -0.153275 10.0252 -11.9198 -8.85528 19.1857 35.1427 90.7328 2.45552e-007 4.97699e-007 -6.19199e-006 -7.15787 27.5096 1.16186 5.86171e-006 -3.72115e-006 -3.00006 8.03022 -4.95139 0.697626 -33.4518 -18.2752 14.4621 5.44146 28.6504 -73.9885 -1.63169e-005 -1.1836e-006 1.1719e-006 2.6268 20.8524 -0.0443285 -1.58498e-005 9.71551e-007 3.00381 -8.02959 -4.9514 -0.69765 171.514 10.7833 5.44014 180 7.01549e-015 178.933 177.227 29.9197 179.677 -2.99257e-007 -3.05125e-006 0.486985 -19.4812 68.8161 20.2444 8.12507 25.2333 -3.48287 175.236 -1.675 4.49493 4.54188e-006 -4.6773e-006 -1.06224 -4.47607 -9.00978 -0.137156 -8.9416e-007 -3.52444e-006 -0.104478 19.6739 69.4424 -20.8105 -8.13649 25.2327 3.48774 
60.1563 92.7051 7.83585 0.754655 -6.07371 -3.83875 -0.102548 -1.79476 -0.220801 -0.210184 0.413703 -0.450283 -0.204885 2.05876 -0.446928 -18.7641 16.2573 4.92772 14.8005 7.98332 -0.153002 10.1882 -11.9122 -8.83534 19.1911 35.2158 90.6635 2.45552e-007 4.97699e-007 -6.19199e-006 -7.29918 26.9569 1.14244 5.86171e-006 -3.72115e-006 -3.00006 8.03022 -4.95139 0.697626 -33.4976 -18.2866 14.4671 5.30232 28.7246 -73.9186 -1.63169e-005 -1.1836e-006 1.1719e-006 2.63661 20.3375 -0.0261769 -1.58498e-005 9.71551e-007 3.00381 -8.02959 -4.9514 -0.69765 171.52 10.8047 5.43932 180 7.01549e-015 178.933 177.223 29.9344 179.678 -2.99257e-007 -3.05125e-006 0.487105 -19.4804 68.8151 20.2434 8.12507 25.2333 -3.48287 175.245 -1.66778 4.49146 4.54188e-006 -4.6773e-006 -1.06252 -4.47552 -9.01043 -0.137416 -8.9416e-007 -3.52444e-006 -0.104445 19.6799 69.447 -20.8147 -8.13649 25.2327 3.48774 
60.151 92.7066 7.83862 0.747293 -6.06465 -3.8591 -0.102666 -1.79769 -0.223209 -0.210678 0.407842 -0.453872 -0.205336 2.0529 -0.450508 -18.7328 16.226 4.9174 14.7822 8.00342 -0.152199 10.3455 -11.9072 -8.81968 19.2006 35.298 90.5951 2.45552e-007 4.97699e-007 -6.19199e-006 -7.43936 26.402 1.12135 5.86171e-006 -3.72115e-006 -3.00006 8.03022 -4.95139 0.697626 -33.5369 -18.3009 14.476 5.15135 28.8028 -73.8485 -1.63169e-005 -1.1836e-006 1.1719e-006 2.64781 19.8293 -0.00909938 -1.58498e-005 9.71551e-007 3.00381 -8.02959 -4.9514 -0.69765 171.525 10.8274 5.43949 180 7.01549e-015 178.933 177.219 29.9501 179.679 -2.99257e-007 -3.05125e-006 0.487254 -19.4795 68.814 20.2421 8.12508 25.2333 -3.48287 175.253 -1.65993 4.48869 4.54188e-006 -4.6773e-006 -1.06281 -4.47475 -9.01125 -0.137683 -8.9416e-007 -3.52444e-006 -0.104412 19.6867 69.4524 -20.8196 -8.13649 25.2327 3.48774 
60.1409 92.706 7.84986 0.740372 -6.05521 -3.88003 -0.10268 -1.80067 -0.225861 -0.210988 0.401893 -0.457726 -0.205599 2.04695 -0.454358 -18.7026 16.1936 4.90791 14.7609 8.02413 -0.15091 10.4977 -11.904 -8.8071 19.2145 35.3877 90.5262 2.45551e-007 4.97699e-007 -6.19199e-006 -7.57828 25.8452 1.09868 5.86171e-006 -3.72115e-006 -3.00005 8.03022 -4.95139 0.697626 -33.5704 -18.3175 14.4881 4.98963 28.8843 -73.7787 -1.63169e-005 -1.1836e-006 1.1719e-006 2.66083 19.3275 0.0069722 -1.58498e-005 9.71551e-007 3.00381 -8.02959 -4.9514 -0.69765 171.528 10.8511 5.44054 180 7.01549e-015 178.933 177.214 29.9669 179.68 -2.99257e-007 -3.05125e-006 0.487427 -19.4784 68.8127 20.2407 8.12509 25.2333 -3.48288 175.26 -1.65158 4.48654 4.54188e-006 -4.6773e-006 -1.06311 -4.47379 -9.01218 -0.137954 -8.9416e-007 -3.52444e-006 -0.104379 19.6943 69.4583 -20.8249 -8.13649 25.2327 3.48774 
